<svg height="511pt" viewBox="0 0 511.99917 511" width="511pt" xmlns="http://www.w3.org/2000/svg"><path d="m256 125.5c-71.679688 0-130 58.316406-130 130s58.320312 130 130 130c71.683594 0 130-58.316406 130-130s-58.316406-130-130-130zm0 220c-49.625 0-90-40.375-90-90s40.375-90 90-90 90 40.375 90 90-40.375 90-90 90zm0 64c11.046875 0 20 8.953125 20 20 0 11.042969-8.953125 20-20 20s-20-8.957031-20-20c0-11.046875 8.957031-20 20-20zm88-24c11.046875 0 20 8.953125 20 20 0 11.042969-8.953125 20-20 20s-20-8.957031-20-20c0-11.046875 8.953125-20 20-20zm82-41c0 11.042969-8.953125 20-20 20s-20-8.957031-20-20c0-11.046875 8.953125-20 20-20s20 8.953125 20 20zm4-69c-11.046875 0-20-8.953125-20-20s8.953125-20 20-20 20 8.953125 20 20c0 11.042969-8.953125 20-20 20zm-44-108c0-11.046875 8.953125-20 20-20s20 8.953125 20 20-8.953125 20-20 20-20-8.957031-20-20zm-43-43c-11.046875 0-20-8.953125-20-20s8.953125-20 20-20 20 8.953125 20 20c0 11.042969-8.953125 20-20 20zm-87-23c-11.046875 0-20-8.953125-20-20s8.953125-20 20-20 20 8.953125 20 20-8.953125 20-20 20zm-87 23c-11.046875 0-20-8.953125-20-20s8.953125-20 20-20 20 8.953125 20 20c0 11.042969-8.953125 20-20 20zm-43 44c0 11.046875-8.953125 20-20 20s-20-8.953125-20-20 8.953125-20 20-20 20 8.953125 20 20zm-44 107c-11.046875 0-20-8.953125-20-20s8.953125-20 20-20 20 8.953125 20 20c0 11.042969-8.953125 20-20 20zm4 67c0-11.046875 8.953125-20 20-20s20 8.953125 20 20c0 11.042969-8.953125 20-20 20s-20-8.957031-20-20zm83 44c11.046875 0 20 8.953125 20 20 0 11.042969-8.953125 20-20 20s-20-8.957031-20-20c0-11.046875 8.957031-20 20-20zm301.984375 8.519531c-5.980469 9.285157-18.359375 11.960938-27.644531 5.976563-9.285156-5.980469-11.960938-18.359375-5.976563-27.644532 23.355469-36.238281 35.320313-77.898437 34.605469-120.480468-1.980469-117.851563-98.496094-212.371094-215.914062-212.371094-1.230469 0-2.449219.011719-3.683594.03125-119.085938 2-214.339844 100.511719-212.339844 219.597656 1.980469 117.851563 98.496094 212.371094 215.917969 212.371094 1.230469 0 2.445312-.011719 3.683593-.03125 39.5-.664062 77.949219-12.070312 111.199219-32.980469 9.347657-5.878906 21.695313-3.070312 27.578125 6.28125 5.878906 9.351563 3.066406 21.695313-6.285156 27.578125-39.433594 24.800782-85.015625 38.328125-131.820312 39.113282-1.472657.023437-2.949219.039062-4.417969.039062-66.738281 0-129.738281-25.457031-177.835938-71.964844-49.160156-47.535156-76.863281-111.363281-78.0117185-179.734375-1.1523435-68.371093 24.3945315-133.09375 71.9257815-182.253906 47.53125-49.15625 111.363281-76.863281 179.730468-78.011719 68.398438-1.140625 133.097657 24.398438 182.253907 71.929688 49.160156 47.53125 76.863281 111.363281 78.015625 179.730468.847656 50.523438-13.324219 99.910157-40.980469 142.824219zm0 0"/></svg>